<?xml version="1.0" encoding="UTF-8"?>
<svg id="Layer_2" data-name="Layer 2" xmlns="http://www.w3.org/2000/svg" viewBox="0 0 1308.39 70.96">
  <defs>
    <style>
      .cls-1 {
        stroke-width: 0px;
      }
    </style>
  </defs>
  <g id="svg13042">
    <g id="layer1">
      <g id="g13001">
        <path id="path12977" class="cls-1" d="M1308.38,68.44c-6.43.82-13.77,3.03-20.84,2.41-22.9-2.01-45.71-5.12-68.55-7.68-5.96-.67-11.98-1.1-17.98-1.27-25.29-.73-50.57-1.65-75.86-1.88-30.2-.26-60.4.34-90.6.14-21.54-.15-43.09-1.45-64.62-1.34-7.92.04-15.79,3.5-23.76,3.92-10.4.54-20.89-.57-31.34-.63-18.06-.1-36.12.53-54.16-.01-18.49-.56-36.94-2.34-55.42-3.28-35.13-1.79-70.26-3.6-105.4-4.92-13.38-.5-26.82.75-40.22.46-19.2-.4-38.37-1.99-57.55-2.17-37.21-.36-74.44-.4-111.66.02-22.59.26-45.17,2.36-67.75,2.36-42.11.01-84.23-.83-126.34-1.43-30.89-.45-61.78-.98-92.67-1.66-7.81-.17-15.6-1.53-23.39-1.46-30.85.26-61.7.7-92.54,1.4-22.45.51-44.96.05-66.83,7.08C12.38,61.25,1.78,51.93.08,41.8c-1-5.98,7.49-16.85,15.03-16.07,30.67,3.17,59.36-9.33,89.59-9.94,27.61-.55,55.15-4.21,82.76-5.81,28.12-1.62,56.29-2.42,84.43-3.49,31.18-1.19,62.47-.97,93.51-3.68,60.66-5.28,121.28-1.56,181.9-1.37,34.51.11,69.04.81,103.52,2.13,39.26,1.5,78.48,4.83,117.74,5.78,29.44.72,58.93-1.15,88.42-1.7,29.58-.55,59.18-.92,88.77-1.3,20.26-.26,40.54-.98,60.78-.48,29.61.73,59.22,1.92,88.77,3.77,18.77,1.18,37.5,3.5,56.13,6.15,10.69,1.52,21.05,5.32,31.72,7.01,14.4,2.3,28.94,3.85,43.46,5.19,15.5,1.43,31.05,2.21,46.57,3.41,1.73.14,4.03.73,4.95,1.94,5.07,6.66,11.58,9.6,19.93,9.91,1.58.05,3.4,4.37,4.39,6.98,2.04,5.37,3.6,10.91,5.93,18.18h0ZM568.97,29.22c-.01-1.05-.04-2.1-.06-3.16-63.28,1.68-126.64-3.74-189.85,3.16h189.91,0ZM948.29,35.35c.03-.55.05-1.11.08-1.67h-28.5c.02.56.03,1.11.04,1.67h28.38Z"/>
      </g>
    </g>
  </g>
</svg>